<?xml version="1.0" standalone="no"?>
<!DOCTYPE svg PUBLIC "-//W3C//DTD SVG 20010904//EN"
 "http://www.w3.org/TR/2001/REC-SVG-20010904/DTD/svg10.dtd">
<svg version="1.0" xmlns="http://www.w3.org/2000/svg"
 width="586.000000pt" height="586.000000pt" viewBox="0 0 586.000000 586.000000"
 preserveAspectRatio="xMidYMid meet">
<metadata>
Created by potrace 1.14, written by Peter Selinger 2001-2017
</metadata>
<g transform="translate(0.000000,586.000000) scale(0.100000,-0.100000)"
fill="#000000" stroke="none">
<path d="M2728 5855 c-1 -1 -41 -6 -88 -10 -47 -3 -92 -8 -100 -10 -8 -3 -35
-7 -60 -11 -68 -9 -83 -12 -207 -38 -106 -22 -314 -89 -473 -152 -75 -30 -305
-145 -308 -155 -2 -5 -9 -9 -14 -9 -23 0 -311 -192 -375 -248 -10 -9 -45 -39
-78 -66 -64 -53 -281 -270 -328 -327 -248 -304 -414 -596 -535 -941 -27 -76
-76 -243 -87 -296 -59 -288 -70 -387 -70 -657 0 -178 8 -332 20 -390 3 -11 7
-37 10 -57 12 -85 16 -114 21 -130 3 -10 7 -30 10 -45 23 -126 111 -402 179
-554 61 -139 144 -294 210 -396 30 -46 55 -88 55 -93 0 -4 3 -10 8 -12 4 -1
36 -41 71 -88 98 -130 156 -196 266 -305 184 -184 328 -298 568 -449 51 -32
291 -153 397 -199 39 -17 298 -105 329 -112 47 -11 58 -13 101 -25 25 -7 56
-14 70 -16 14 -3 59 -11 100 -19 174 -32 256 -39 495 -39 189 -1 346 7 407 20
13 2 41 7 63 10 22 3 47 7 55 8 64 12 106 21 175 38 44 11 87 21 96 23 37 7
261 86 344 120 129 54 383 184 413 212 6 6 21 15 32 18 11 3 20 11 20 16 0 5
4 9 10 9 13 0 89 53 200 140 134 105 141 111 275 245 218 218 390 455 535 739
44 86 80 158 80 161 1 3 10 26 21 52 46 108 130 377 153 493 3 14 7 36 11 50
3 14 7 41 10 60 3 19 7 46 9 60 24 132 29 212 30 430 1 229 -6 343 -31 480 -3
19 -7 46 -9 60 -2 14 -6 36 -10 50 -3 14 -8 36 -10 49 -25 134 -110 401 -164
518 -11 24 -20 45 -20 48 0 11 -104 214 -159 310 -35 61 -143 220 -153 223 -4
2 -8 10 -8 17 0 7 -3 15 -7 17 -5 2 -24 24 -43 49 -19 25 -53 68 -75 95 -49
59 -263 274 -329 329 -26 22 -53 45 -59 50 -141 125 -487 332 -727 433 -144
61 -431 146 -583 172 -29 5 -61 11 -72 13 -18 4 -91 14 -175 24 -44 5 -487 13
-492 8z"/>
</g>
</svg>
